<svg width="61" height="51" viewBox="0 0 61 51" fill="none" xmlns="http://www.w3.org/2000/svg">
<path d="M10.873 44.6673C7.33608 44.6687 3.83609 45.3958 0.584473 46.8049V3.88276C4.57197 1.4557 9.25797 0.478304 13.8684 1.11203C18.4788 1.74575 22.7377 3.95269 25.9416 7.36825L27.7273 9.25706V50.9238C23.0148 46.8897 17.0445 44.6734 10.873 44.6673ZM60.5845 46.8049C56.1285 44.8728 51.2292 44.2348 46.4353 44.9623C41.6414 45.6898 37.1422 47.754 33.4416 50.9238V9.25706L35.2302 7.36825C38.4345 3.95431 42.6928 1.74847 47.3023 1.11479C51.9118 0.481121 56.597 1.45749 60.5845 3.88276V46.8049Z" fill="#E2AE63"/>
</svg>
