<svg width="35" height="35" viewBox="0 0 35 35" fill="none" xmlns="http://www.w3.org/2000/svg">
<g filter="url(#filter0_d_500_2160)">
<path d="M16.1822 3.63566H7.48493C6.82588 3.63566 6.19383 3.89747 5.72782 4.36348C5.2618 4.82949 5 5.46155 5 6.12059V23.5151C5 24.1741 5.2618 24.8062 5.72782 25.2722C6.19383 25.7382 6.82588 26 7.48493 26H24.8794C25.5385 26 26.1705 25.7382 26.6365 25.2722C27.1025 24.8062 27.3643 24.1741 27.3643 23.5151V14.8178M25.5006 1.77197C25.9949 1.27769 26.6653 1 27.3643 1C28.0634 1 28.7338 1.27769 29.228 1.77197C29.7223 2.26625 30 2.93664 30 3.63566C30 4.33468 29.7223 5.00507 29.228 5.49936L17.4246 17.3028L12.4548 18.5452L13.6972 13.5754L25.5006 1.77197Z" stroke="white" stroke-width="2" stroke-linecap="round" stroke-linejoin="round" shape-rendering="crispEdges"/>
</g>
<defs>
<filter id="filter0_d_500_2160" x="0" y="0" width="35" height="35" filterUnits="userSpaceOnUse" color-interpolation-filters="sRGB">
<feFlood flood-opacity="0" result="BackgroundImageFix"/>
<feColorMatrix in="SourceAlpha" type="matrix" values="0 0 0 0 0 0 0 0 0 0 0 0 0 0 0 0 0 0 127 0" result="hardAlpha"/>
<feOffset dy="4"/>
<feGaussianBlur stdDeviation="2"/>
<feComposite in2="hardAlpha" operator="out"/>
<feColorMatrix type="matrix" values="0 0 0 0 0 0 0 0 0 0 0 0 0 0 0 0 0 0 0.25 0"/>
<feBlend mode="normal" in2="BackgroundImageFix" result="effect1_dropShadow_500_2160"/>
<feBlend mode="normal" in="SourceGraphic" in2="effect1_dropShadow_500_2160" result="shape"/>
</filter>
</defs>
</svg>
