<svg width="58" height="58" viewBox="0 0 58 58" fill="none" xmlns="http://www.w3.org/2000/svg">
<path d="M29 0C33.0972 0 36.4186 3.32143 36.4186 7.4186V17.5349H29C25.7183 17.5349 22.7585 18.9137 20.6685 21.1237L20.2371 20.6753C21.6325 18.7616 22.8838 16.6399 23.7236 14.3721H26.3023C27.4197 14.3721 28.3256 13.4662 28.3256 12.3488C28.3256 11.2314 27.4197 10.3256 26.3023 10.3256H19.4233V10.1163C19.4233 8.99887 18.5174 8.09302 17.4 8.09302C16.2826 8.09302 15.3767 8.99887 15.3767 10.1163V10.3256H10.1163C8.99887 10.3256 8.09302 11.2314 8.09302 12.3488C8.09302 13.4662 8.99887 14.3721 10.1163 14.3721H19.3357C18.8349 15.4309 18.223 16.4732 17.5331 17.4883L17.5236 17.4752C16.9758 16.7155 16.6122 16.1373 16.4938 15.8831C16.0218 14.8703 14.818 14.4319 13.8052 14.904C12.7924 15.376 12.354 16.5797 12.8261 17.5926C13.1238 18.2314 13.6967 19.0866 14.2415 19.842C14.4695 20.1582 14.7107 20.4816 14.9537 20.7978C13.6422 22.2953 12.2662 23.65 11.0013 24.8129C10.1788 25.5694 10.1251 26.8494 10.8814 27.6719C11.6378 28.4945 12.9177 28.5479 13.7403 27.7917C14.9708 26.66 16.3323 25.3287 17.6656 23.8388L18.406 24.6087C17.8447 25.9611 17.5349 27.4445 17.5349 29V36.4186H7.4186C3.32143 36.4186 0 33.0972 0 29V7.4186C0 3.32143 3.32143 0 7.4186 0H29ZM39.7907 36.2219L41.9124 40.4651H37.669L39.7907 36.2219Z" fill="#E2AE63"/>
<path fill-rule="evenodd" clip-rule="evenodd" d="M21.5814 29.0006C21.5814 24.9034 24.9028 21.582 29 21.582H50.5814C54.6786 21.582 58 24.9034 58 29.0006V50.582C58 54.6793 54.6786 58.0006 50.5814 58.0006H29C24.9028 58.0006 21.5814 54.6793 21.5814 50.582V29.0006ZM41.6003 30.7935C41.2577 30.108 40.5571 29.6751 39.7907 29.6751C39.0243 29.6751 38.3237 30.108 37.9811 30.7935L29.8881 46.9796C29.3882 47.979 29.7934 49.1943 30.7929 49.694C31.7924 50.1938 33.0077 49.7886 33.5073 48.7892L35.6457 44.5123H43.9357L46.0741 48.7892C46.5737 49.7886 47.789 50.1938 48.7885 49.694C49.788 49.1943 50.1932 47.979 49.6933 46.9796L41.6003 30.7935Z" fill="#E2AE63"/>
</svg>
