<svg width="55" height="62" viewBox="0 0 55 62" fill="none" xmlns="http://www.w3.org/2000/svg">
<g filter="url(#filter0_d_93_1663)">
<path d="M42.2661 0C44.4637 0.00293617 46.5701 0.878728 48.1219 2.43471C49.6737 3.99069 50.5439 6.09941 50.541 8.29696C50.538 10.4945 49.6622 12.6009 48.1062 14.1527C46.5503 15.7046 44.4415 16.5747 42.244 16.5718C41.2623 16.574 40.2886 16.3961 39.3711 16.047L34.562 16.8906L35.9525 13.6535C34.6736 12.162 33.9703 10.2623 33.9697 8.29751C33.9698 6.0971 34.8439 3.98681 36.3997 2.43077C37.9555 0.87474 40.0657 0.000381643 42.2661 0Z" fill="#EA9300"/>
<path d="M37.0639 28.7666V35.409H33.766H7.86046H4.5636V28.7666H9.54543H32.0821H37.0639Z" fill="#EA9300"/>
<path d="M33.766 35.4082H7.86047V53.8033H33.766V35.4082Z" fill="#FFA000"/>
<path d="M25.0988 22.0332H28.1045C29.1594 22.0333 30.1711 22.4525 30.917 23.1984C31.663 23.9443 32.0821 24.956 32.0822 26.0109V28.7664H9.54553V26.0109C9.54541 24.9561 9.96431 23.9445 10.7101 23.1985C11.4558 22.4526 12.4673 22.0334 13.5221 22.0332H16.5101C17.6854 23.0505 19.1836 23.6175 20.7379 23.6331C22.2922 23.6487 23.8015 23.1119 24.997 22.1184L25.0988 22.0332Z" fill="#EF9600"/>
<path d="M17.565 3.28574C17.791 2.92357 18.1276 2.6438 18.525 2.48788C18.9224 2.33195 19.3595 2.30815 19.7714 2.42001L22.0077 3.02337C22.9062 3.26692 23.8459 3.31785 24.7655 3.17282L29.6488 2.40562C29.6488 4.07066 28.9945 5.81873 27.5874 6.54275C27.4337 6.62268 27.2733 6.68899 27.108 6.74092C27.108 6.74092 22.2768 7.48266 19.1792 7.66311C18.7507 7.68747 18.3555 7.70186 18.0112 7.70186C17.8131 7.70157 17.6232 7.62274 17.4831 7.48266C17.343 7.34259 17.2642 7.15268 17.2639 6.95458V4.33968C17.2629 3.967 17.3673 3.60162 17.565 3.28574Z" fill="#635A4B"/>
<path d="M25.0987 19.2068C23.9033 20.2258 22.3839 20.7855 20.8132 20.7855C19.2424 20.7855 17.7231 20.2258 16.5277 19.2068C15.7478 18.5528 15.1201 17.7363 14.6887 16.8144C14.2573 15.8925 14.0325 14.8874 14.0302 13.8696V9.78559H14.0523C14.8217 9.90847 16.9263 10.1155 19.1803 7.67661L19.1791 7.66333C22.2767 7.48287 27.108 6.74113 27.108 6.74113C27.2733 6.68921 27.4337 6.6229 27.5874 6.54297L27.5962 6.55847V13.8696C27.5926 15.6871 26.88 17.4315 25.6101 18.7318C25.4478 18.8987 25.2771 19.0572 25.0987 19.2068Z" fill="#F7D8A5"/>
<path d="M19.1791 7.6635L19.1803 7.67678C16.9263 10.1157 14.8217 9.90865 14.0523 9.78576H14.0302V9.23997C14.0304 8.02159 14.3588 6.82577 14.9808 5.77812C15.6028 4.73047 16.4955 3.86967 17.565 3.28613C17.3673 3.60201 17.2629 3.96738 17.2639 4.34007V6.95497C17.2642 7.15307 17.343 7.34298 17.4831 7.48305C17.6232 7.62313 17.8131 7.70196 18.0112 7.70225C18.3555 7.70225 18.7507 7.68786 19.1791 7.6635Z" fill="#494338"/>
<path d="M18.0599 15.0544C17.4785 15.0537 16.9211 14.8224 16.5099 14.4113C16.0988 14.0001 15.8675 13.4427 15.8668 12.8612C15.8668 12.6264 15.9601 12.4011 16.1262 12.235C16.2923 12.0689 16.5176 11.9756 16.7525 11.9756C16.9874 11.9756 17.2126 12.0689 17.3787 12.235C17.5448 12.4011 17.6381 12.6264 17.6381 12.8612C17.6381 12.9731 17.6826 13.0804 17.7617 13.1595C17.8408 13.2386 17.9481 13.283 18.0599 13.283C18.1718 13.283 18.2791 13.2386 18.3582 13.1595C18.4373 13.0804 18.4817 12.9731 18.4817 12.8612C18.4817 12.6264 18.575 12.4011 18.7411 12.235C18.9072 12.0689 19.1325 11.9756 19.3674 11.9756C19.6023 11.9756 19.8275 12.0689 19.9936 12.235C20.1597 12.4011 20.253 12.6264 20.253 12.8612C20.2524 13.4427 20.0211 14.0001 19.61 14.4113C19.1988 14.8224 18.6414 15.0537 18.0599 15.0544ZM23.5665 15.0544C22.9852 15.0535 22.428 14.8222 22.017 14.411C21.6061 13.9999 21.375 13.4425 21.3745 12.8612C21.3745 12.6264 21.4678 12.4011 21.6339 12.235C21.8 12.0689 22.0253 11.9756 22.2602 11.9756C22.4951 11.9756 22.7203 12.0689 22.8864 12.235C23.0525 12.4011 23.1458 12.6264 23.1458 12.8612C23.1458 12.973 23.1902 13.0801 23.2692 13.1591C23.3482 13.2381 23.4553 13.2825 23.5671 13.2825C23.6788 13.2825 23.7859 13.2381 23.8649 13.1591C23.9439 13.0801 23.9883 12.973 23.9883 12.8612C23.9883 12.6264 24.0816 12.4011 24.2477 12.235C24.4138 12.0689 24.6391 11.9756 24.874 11.9756C25.1089 11.9756 25.3341 12.0689 25.5002 12.235C25.6663 12.4011 25.7596 12.6264 25.7596 12.8612C25.759 13.4427 25.5277 14.0001 25.1165 14.4113C24.7054 14.8224 24.148 15.0537 23.5665 15.0544Z" fill="#EDC788"/>
<path d="M43.2724 7.30647H38.0692C37.8343 7.30647 37.609 7.21316 37.4429 7.04707C37.2768 6.88098 37.1835 6.65571 37.1835 6.42081C37.1835 6.18592 37.2768 5.96065 37.4429 5.79456C37.609 5.62847 37.8343 5.53516 38.0692 5.53516H43.2724C43.5073 5.53516 43.7326 5.62847 43.8987 5.79456C44.0648 5.96065 44.1581 6.18592 44.1581 6.42081C44.1581 6.65571 44.0648 6.88098 43.8987 7.04707C43.7326 7.21316 43.5073 7.30647 43.2724 7.30647ZM46.7044 10.6277H38.0692C37.8343 10.6277 37.609 10.5344 37.4429 10.3683C37.2768 10.2022 37.1835 9.97693 37.1835 9.74203C37.1835 9.50714 37.2768 9.28187 37.4429 9.11578C37.609 8.94969 37.8343 8.85638 38.0692 8.85638H46.7044C46.9393 8.85638 47.1645 8.94969 47.3306 9.11578C47.4967 9.28187 47.59 9.50714 47.59 9.74203C47.59 9.97693 47.4967 10.2022 47.3306 10.3683C47.1645 10.5344 46.9393 10.6277 46.7044 10.6277Z" fill="#FFA000"/>
</g>
<defs>
<filter id="filter0_d_93_1663" x="0.563599" y="0" width="53.9774" height="61.8037" filterUnits="userSpaceOnUse" color-interpolation-filters="sRGB">
<feFlood flood-opacity="0" result="BackgroundImageFix"/>
<feColorMatrix in="SourceAlpha" type="matrix" values="0 0 0 0 0 0 0 0 0 0 0 0 0 0 0 0 0 0 127 0" result="hardAlpha"/>
<feOffset dy="4"/>
<feGaussianBlur stdDeviation="2"/>
<feComposite in2="hardAlpha" operator="out"/>
<feColorMatrix type="matrix" values="0 0 0 0 0 0 0 0 0 0 0 0 0 0 0 0 0 0 0.25 0"/>
<feBlend mode="normal" in2="BackgroundImageFix" result="effect1_dropShadow_93_1663"/>
<feBlend mode="normal" in="SourceGraphic" in2="effect1_dropShadow_93_1663" result="shape"/>
</filter>
</defs>
</svg>
