<svg width="40" height="51" viewBox="0 0 40 51" fill="none" xmlns="http://www.w3.org/2000/svg">
<path d="M3.33982 50.4913C2.86676 50.4899 2.40205 50.3666 1.99048 50.1333C1.56512 49.8942 1.21093 49.5464 0.96416 49.1254C0.717392 48.7045 0.58691 48.2255 0.586069 47.7376V7.34006C0.548843 5.68869 1.16388 4.08916 2.29789 2.88814C3.4319 1.68712 4.99352 0.981366 6.64432 0.923828H33.0803C34.7311 0.981366 36.2927 1.68712 37.4267 2.88814C38.5607 4.08916 39.1758 5.68869 39.1386 7.34006V47.7376C39.1357 48.2181 39.007 48.6896 38.7655 49.105C38.5239 49.5205 38.1779 49.8655 37.7617 50.1058C37.3431 50.3475 36.8682 50.4747 36.3848 50.4747C35.9014 50.4747 35.4266 50.3475 35.0079 50.1058L19.3942 41.2663L4.71669 50.0783C4.3024 50.3354 3.82725 50.478 3.33982 50.4913Z" fill="#E2AE63"/>
</svg>
