<svg width="53" height="51" viewBox="0 0 53 51" fill="none" xmlns="http://www.w3.org/2000/svg">
<path d="M52.5444 20.9453C52.8042 19.6352 51.765 18.063 50.466 18.063L35.6574 15.9668L28.9026 2.34128C28.6428 1.81722 28.383 1.5552 27.8634 1.29317C26.5644 0.507082 25.0056 1.03114 24.2262 2.34128L17.7312 15.9668L2.92267 18.063C2.14327 18.063 1.62367 18.325 1.36387 18.8491C0.324673 19.8972 0.324673 21.4693 1.36387 22.5175L12.0157 32.9986L9.41766 47.9342C9.41766 48.4583 9.41766 48.9823 9.67746 49.5064C10.4569 50.8165 12.0157 51.3406 13.3147 50.5545L26.5644 43.4797L39.8142 50.5545C40.074 50.8165 40.5936 50.8165 41.1132 50.8165C41.373 50.8165 41.373 50.8165 41.6328 50.8165C42.9318 50.5545 43.971 49.2443 43.7112 47.6722L41.1132 32.7366L51.765 22.2554C52.2846 21.9934 52.5444 21.4693 52.5444 20.9453Z" fill="#E2AE63"/>
</svg>
