<svg width="23" height="41" viewBox="0 0 23 41" fill="none" xmlns="http://www.w3.org/2000/svg">
<path d="M11.5 41C8.29394 41 5.57576 39.9067 3.34545 37.72C1.11515 35.5333 0 32.8683 0 29.725V8.2C0 5.945 0.818939 4.01458 2.45682 2.40875C4.0947 0.802917 6.06364 0 8.36364 0C10.6636 0 12.6326 0.802917 14.2705 2.40875C15.9083 4.01458 16.7273 5.945 16.7273 8.2V27.675C16.7273 29.11 16.222 30.3229 15.2114 31.3138C14.2008 32.3046 12.9636 32.8 11.5 32.8C10.0364 32.8 8.79924 32.3046 7.78864 31.3138C6.77803 30.3229 6.27273 29.11 6.27273 27.675V8.2H9.40909V27.675C9.40909 28.2558 9.60947 28.7427 10.0102 29.1356C10.411 29.5285 10.9076 29.725 11.5 29.725C12.0924 29.725 12.589 29.5285 12.9898 29.1356C13.3905 28.7427 13.5909 28.2558 13.5909 27.675V8.2C13.5909 6.765 13.0856 5.55208 12.075 4.56125C11.0644 3.57042 9.82727 3.075 8.36364 3.075C6.9 3.075 5.66288 3.57042 4.65227 4.56125C3.64167 5.55208 3.13636 6.765 3.13636 8.2V29.725C3.13636 31.98 3.9553 33.9104 5.59318 35.5163C7.23106 37.1221 9.2 37.925 11.5 37.925C13.8 37.925 15.7689 37.1221 17.4068 35.5163C19.0447 33.9104 19.8636 31.98 19.8636 29.725V8.2H23V29.725C23 32.8683 21.8848 35.5333 19.6545 37.72C17.4242 39.9067 14.7061 41 11.5 41Z" fill="#E2AE63"/>
</svg>
