<svg width="57" height="62" viewBox="0 0 57 62" fill="none" xmlns="http://www.w3.org/2000/svg">
<g filter="url(#filter0_d_93_1678)">
<path d="M52.0594 4.25554C52.0594 4.95139 51.783 5.61874 51.2909 6.11079C50.7989 6.60283 50.1316 6.87925 49.4357 6.87925H7.45638C6.76053 6.87925 6.09318 6.60283 5.60114 6.11079C5.1091 5.61874 4.83267 4.95139 4.83267 4.25554C4.83267 3.55969 5.1091 2.89234 5.60114 2.4003C6.09318 1.90826 6.76053 1.63184 7.45638 1.63184H49.4357C50.1316 1.63184 50.7989 1.90826 51.2909 2.4003C51.783 2.89234 52.0594 3.55969 52.0594 4.25554Z" fill="#CCAD7A"/>
<path d="M43.681 1.63184C43.3159 3.44623 42.7284 5.20867 41.9319 6.87925H7.45638C6.76053 6.87925 6.09318 6.60283 5.60114 6.11079C5.1091 5.61874 4.83267 4.95139 4.83267 4.25554C4.83267 3.55969 5.1091 2.89234 5.60114 2.4003C6.09318 1.90826 6.76053 1.63184 7.45638 1.63184H43.681Z" fill="#C39E61"/>
<path d="M52.0594 37.4889C52.0594 38.1848 51.783 38.8521 51.2909 39.3442C50.7989 39.8362 50.1316 40.1126 49.4357 40.1126H7.45638C6.76053 40.1126 6.09318 39.8362 5.60114 39.3442C5.1091 38.8521 4.83267 38.1848 4.83267 37.4889C4.83267 36.7931 5.1091 36.1257 5.60114 35.6337C6.09318 35.1417 6.76053 34.8652 7.45638 34.8652H49.4357C50.1316 34.8652 50.7989 35.1417 51.2909 35.6337C51.783 36.1257 52.0594 36.7931 52.0594 37.4889Z" fill="#CCAD7A"/>
<path d="M43.681 34.8652C43.3159 36.6796 42.7284 38.4421 41.9319 40.1126H7.45638C6.76053 40.1126 6.09318 39.8362 5.60114 39.3442C5.1091 38.8521 4.83267 38.1848 4.83267 37.4889C4.83267 36.7931 5.1091 36.1257 5.60114 35.6337C6.09318 35.1417 6.76053 34.8652 7.45638 34.8652H43.681Z" fill="#C39E61"/>
<path d="M49.4357 6.87891H7.45633V34.8651H49.4357V6.87891Z" fill="white"/>
<path d="M49.4357 6.87891H7.45633V9.50261H49.4357V6.87891Z" fill="#E6E6E6"/>
<path d="M26.6969 22.6211C26.6971 22.9134 26.6796 23.2055 26.6444 23.4957C26.4805 24.9692 25.9037 26.3664 24.9806 27.5264C24.0574 28.6865 22.8254 29.5623 21.4264 30.0529C20.0274 30.5436 18.5183 30.6291 17.0728 30.2997C15.6273 29.9703 14.3042 29.2394 13.2558 28.1911C12.2075 27.1427 11.4766 25.8196 11.1472 24.3741C10.8178 22.9286 10.9033 21.4195 11.394 20.0205C11.8846 18.6215 12.7604 17.3894 13.9204 16.4663C15.0805 15.5432 16.4777 14.9664 17.9512 14.8025C18.2414 14.7673 18.5335 14.7498 18.8258 14.75C20.9133 14.75 22.9154 15.5793 24.3915 17.0554C25.8676 18.5315 26.6969 20.5336 26.6969 22.6211Z" fill="#E6E6E6"/>
<path d="M26.6969 20.8721C26.6971 21.1644 26.6796 21.4565 26.6444 21.7467C26.4805 23.2201 25.9037 24.6173 24.9806 25.7774C24.0574 26.9375 22.8254 27.8133 21.4264 28.3039C20.0274 28.7945 18.5183 28.8801 17.0728 28.5507C15.6273 28.2213 14.3042 27.4904 13.2558 26.442C12.2075 25.3937 11.4766 24.0706 11.1472 22.6251C10.8178 21.1796 10.9033 19.6705 11.394 18.2715C11.8846 16.8724 12.7604 15.6404 13.9204 14.7173C15.0805 13.7941 16.4777 13.2174 17.9512 13.0535C18.2414 13.0183 18.5335 13.0008 18.8258 13.001C20.9133 13.001 22.9154 13.8303 24.3915 15.3064C25.8676 16.7825 26.6969 18.7846 26.6969 20.8721Z" fill="#FFA000"/>
<path d="M26.6969 20.8721C26.6971 21.1644 26.6796 21.4565 26.6444 21.7467H17.9512V13.0535C18.2414 13.0183 18.5334 13.0008 18.8257 13.001C20.9133 13.001 22.9153 13.8303 24.3915 15.3064C25.8676 16.7825 26.6969 18.7845 26.6969 20.8721Z" fill="#FFD38A"/>
<path d="M36.3171 14.7501H30.1952C29.9632 14.7501 29.7408 14.658 29.5767 14.494C29.4127 14.3299 29.3206 14.1075 29.3206 13.8755C29.3206 13.6436 29.4127 13.4211 29.5767 13.2571C29.7408 13.0931 29.9632 13.001 30.1952 13.001H36.3171C36.5491 13.001 36.7715 13.0931 36.9356 13.2571C37.0996 13.4211 37.1917 13.6436 37.1917 13.8755C37.1917 14.1075 37.0996 14.3299 36.9356 14.494C36.7715 14.658 36.5491 14.7501 36.3171 14.7501ZM45.0628 21.7467H30.1952C29.9632 21.7467 29.7408 21.6545 29.5767 21.4905C29.4127 21.3265 29.3206 21.104 29.3206 20.8721C29.3206 20.6401 29.4127 20.4177 29.5767 20.2537C29.7408 20.0897 29.9632 19.9975 30.1952 19.9975H45.0628C45.2948 19.9975 45.5172 20.0897 45.6812 20.2537C45.8453 20.4177 45.9374 20.6401 45.9374 20.8721C45.9374 21.104 45.8453 21.3265 45.6812 21.4905C45.5172 21.6545 45.2948 21.7467 45.0628 21.7467ZM45.0628 28.7432H30.1952C29.9632 28.7432 29.7408 28.6511 29.5767 28.4871C29.4127 28.3231 29.3206 28.1006 29.3206 27.8687C29.3206 27.6367 29.4127 27.4143 29.5767 27.2502C29.7408 27.0862 29.9632 26.9941 30.1952 26.9941H45.0628C45.2948 26.9941 45.5172 27.0862 45.6812 27.2502C45.8453 27.4143 45.9374 27.6367 45.9374 27.8687C45.9374 28.1006 45.8453 28.3231 45.6812 28.4871C45.5172 28.6511 45.2948 28.7432 45.0628 28.7432Z" fill="#C39E61"/>
<path d="M50.3103 34.1129V7.63095C51.1249 7.4098 51.8321 6.90156 52.3014 6.19996C52.7708 5.49836 52.9706 4.65071 52.8641 3.81335C52.7575 2.97598 52.3518 2.20538 51.7217 1.64365C51.0917 1.08192 50.2797 0.766953 49.4357 0.756836H7.45636C6.6123 0.766953 5.80037 1.08192 5.1703 1.64365C4.54023 2.20538 4.13452 2.97598 4.02798 3.81335C3.92145 4.65071 4.12128 5.49836 4.59062 6.19996C5.05996 6.90156 5.76716 7.4098 6.58179 7.63095V34.1129C5.76716 34.3341 5.05996 34.8423 4.59062 35.5439C4.12128 36.2455 3.92145 37.0931 4.02798 37.9305C4.13452 38.7679 4.54023 39.5385 5.1703 40.1002C5.80037 40.6619 6.6123 40.9769 7.45636 40.987H27.5715V46.3569C26.747 46.5697 26.0285 47.076 25.5507 47.7807C25.0728 48.4854 24.8683 49.3402 24.9756 50.1849C25.0829 51.0295 25.4946 51.8061 26.1335 52.3689C26.7723 52.9318 27.5946 53.2423 28.446 53.2423C29.2975 53.2423 30.1197 52.9318 30.7586 52.3689C31.3975 51.8061 31.8091 51.0295 31.9164 50.1849C32.0237 49.3402 31.8192 48.4854 31.3414 47.7807C30.8635 47.076 30.145 46.5697 29.3206 46.3569V40.987H49.4357C50.2797 40.9769 51.0917 40.6619 51.7217 40.1002C52.3518 39.5385 52.7575 38.7679 52.8641 37.9305C52.9706 37.0931 52.7708 36.2455 52.3014 35.5439C51.8321 34.8423 51.1249 34.3341 50.3103 34.1129ZM30.1952 49.7327C30.1952 50.0787 30.0926 50.4168 29.9004 50.7045C29.7082 50.9921 29.435 51.2163 29.1154 51.3487C28.7958 51.4811 28.4441 51.5157 28.1048 51.4482C27.7655 51.3808 27.4538 51.2142 27.2092 50.9695C26.9646 50.7249 26.798 50.4133 26.7305 50.074C26.663 49.7347 26.6976 49.383 26.83 49.0633C26.9624 48.7437 27.1866 48.4706 27.4743 48.2784C27.7619 48.0862 28.1001 47.9836 28.446 47.9836C28.9099 47.9836 29.3548 48.1679 29.6828 48.4959C30.0109 48.8239 30.1952 49.2688 30.1952 49.7327ZM8.33093 7.75339H48.5611V33.9905H8.33093V7.75339ZM5.70722 4.25511C5.70722 3.79121 5.8915 3.34631 6.21953 3.01829C6.54756 2.69026 6.99246 2.50597 7.45636 2.50597H49.4357C49.8996 2.50597 50.3445 2.69026 50.6725 3.01829C51.0005 3.34631 51.1848 3.79121 51.1848 4.25511C51.1848 4.71901 51.0005 5.16391 50.6725 5.49194C50.3445 5.81997 49.8996 6.00425 49.4357 6.00425H7.45636C6.99246 6.00425 6.54756 5.81997 6.21953 5.49194C5.8915 5.16391 5.70722 4.71901 5.70722 4.25511ZM49.4357 39.2379H7.45636C6.99246 39.2379 6.54756 39.0536 6.21953 38.7256C5.8915 38.3975 5.70722 37.9526 5.70722 37.4887C5.70722 37.0248 5.8915 36.5799 6.21953 36.2519C6.54756 35.9239 6.99246 35.7396 7.45636 35.7396H49.4357C49.8996 35.7396 50.3445 35.9239 50.6725 36.2519C51.0005 36.5799 51.1848 37.0248 51.1848 37.4887C51.1848 37.9526 51.0005 38.3975 50.6725 38.7256C50.3445 39.0536 49.8996 39.2379 49.4357 39.2379Z" fill="#5F594E"/>
</g>
<defs>
<filter id="filter0_d_93_1678" x="0" y="0.756836" width="56.892" height="60.4854" filterUnits="userSpaceOnUse" color-interpolation-filters="sRGB">
<feFlood flood-opacity="0" result="BackgroundImageFix"/>
<feColorMatrix in="SourceAlpha" type="matrix" values="0 0 0 0 0 0 0 0 0 0 0 0 0 0 0 0 0 0 127 0" result="hardAlpha"/>
<feOffset dy="4"/>
<feGaussianBlur stdDeviation="2"/>
<feComposite in2="hardAlpha" operator="out"/>
<feColorMatrix type="matrix" values="0 0 0 0 0 0 0 0 0 0 0 0 0 0 0 0 0 0 0.25 0"/>
<feBlend mode="normal" in2="BackgroundImageFix" result="effect1_dropShadow_93_1678"/>
<feBlend mode="normal" in="SourceGraphic" in2="effect1_dropShadow_93_1678" result="shape"/>
</filter>
</defs>
</svg>
